# AST/ASF file generated using VICON BodyLanguage
# -----------------------------------------------
:version 1.10
:name VICON
:units
  mass 1.0
  length 0.45
  angle deg
:documentation
   .ast/.asf automatically generated from VICON data using
   VICON BodyBuilder and BodyLanguage model FoxedUp or BRILLIANT.MOD
:root
   order TX TY TZ RX RY RZ
   axis XYZ
   position 0 0 0  
   orientation 0 0 0 
:bonedata
  begin
     id 1 
     name lhipjoint
     direction 0.661853 -0.702389 0.261917 
     length 2.64193 
     axis 0 0 0  XYZ
  end
  begin
     id 2 
     name lfemur
     direction 0.34202 -0.939693 0  
     length 7.01722  
     axis 0 0 20  XYZ
    dof rx ry rz
    limits (-160.0 20.0)
           (-70.0 70.0)
           (-60.0 70.0)
  end
  begin
     id 3 
     name ltibia
     direction 0.34202 -0.939693 0   
     length 8.25008   
     axis 0 0 20   XYZ
    dof rx
    limits (-10.0 170.0)
  end
  begin
     id 4 
     name lfoot
     direction 0.0709916 -0.195048 0.978221   
     length 2.31941   
     axis -90 7.62852e-016 20   XYZ
    dof rx rz
    limits (-45.0 90.0)
           (-70.0 20.0)
  end
  begin
     id 5 
     name ltoes
     direction 1.53586e-011 -4.22017e-011 1   
     length 1.16486   
     axis -90 7.62852e-016 20   XYZ
    dof rx
    limits (-90.0 20.0)
  end
  begin
     id 6 
     name rhipjoint
     direction -0.638185 -0.721362 0.268992   
     length 2.57244  
     axis 0 0 0  XYZ 
  end
  begin
     id 7 
     name rfemur
     direction -0.34202 -0.939693 0   
     length 7.07017   
     axis 0 0 -20   XYZ
    dof rx ry rz
    limits (-160.0 20.0)
           (-70.0 70.0)
           (-70.0 60.0)
  end
  begin
     id 8 
     name rtibia
     direction -0.34202 -0.939693 0   
     length 8.20386   
     axis 0 0 -20   XYZ
    dof rx
    limits (-10.0 170.0)
 end
 begin
     id 9 
     name rfoot
     direction -0.0822429 -0.225961 0.970658   
     length 2.32215  
     axis -90 -7.62852e-016 -20   XYZ
    dof rx rz
    limits (-45.0 90.0)
           (-20.0 70.0)
  end
  begin
     id 10 
     name rtoes
     direction -1.53597e-011 -4.21689e-011 1   
     length 1.16333   
     axis -90 -7.62852e-016 -20   XYZ
    dof rx
    limits (-90.0 20.0)
  end
  begin
     id 11 
     name lowerback
     direction -0.0131557 0.998589 -0.0514484   
     length 2.14993   
     axis 0 0 0   XYZ
    dof rx ry rz
    limits (-20.0 45.0)
           (-30.0 30.0)
           (-30.0 30.0)
  end
  begin
     id 12 
     name upperback
     direction -0.000776481 0.999993 0.00352685   
     length 2.15301   
     axis 0 0 0   XYZ
    dof rx ry rz
    limits (-20.0 45.0)
           (-30.0 30.0)
           (-30.0 30.0)
  end
  begin
     id 13 
     name thorax
     direction 0.00438186 0.999609 0.0276143   
     length 2.15424   
     axis 0 0 0   XYZ
    dof rx ry rz
    limits (-20.0 45.0)
           (-30.0 30.0)
           (-30.0 30.0)
  end
  begin
     id 14 
     name lowerneck
     direction -0.0488006 0.998094 0.0377807   
     length 1.90481   
     axis 0 0 0   XYZ
    dof rx ry rz
    limits (-20.0 45.0)
           (-30.0 30.0)
           (-30.0 30.0)
  end
  begin
     id 15 
     name upperneck
     direction 0.0443769 0.990702 -0.12861   
     length 1.91305   
     axis 0 0 0   XYZ
    dof rx ry rz
    limits (-20.0 45.0)
           (-30.0 30.0)
           (-30.0 30.0)
  end
  begin
     id 16
     name head
     direction 0.0165599 0.998647 -0.0492982  
     length 1.92369  
     axis 0 0 0   XYZ
    dof rx ry rz
    limits (-20.0 45.0)
           (-30.0 30.0)
           (-30.0 30.0)
  end
  begin
     id 17 
     name lclavicle
     direction 0.911936 0.410197 -0.0105506  
     length 3.52622  
     axis 0 0 0   XYZ
    dof ry rz
    limits (-20.0 10.0)
           (0.0 20.0)
  end
  begin
     id 18 
     name lhumerus
     direction 1 -4.48974e-011 -2.48591e-028   
     length 5.47651   
     axis 180 -30 -90   XYZ
    dof rx ry rz
    limits (-60.0 90.0)
           (-90.0 90.0)
           (-90.0 90.0)
  end
  begin
     id 19
     name lradius
     direction 1 -4.48938e-011 -4.40099e-027   
     length 3.09058   
     axis 180 -30 -90   XYZ
    dof rx
    limits (-10.0 170.0)
  end
  begin
     id 20
     name lwrist
     direction 1 -4.49042e-011 -2.99852e-027   
     length 1.54529   
     axis 1.95339e-015 90 90   XYZ
    dof ry
    limits (-180.0 0.0)
 end
  begin
     id 21 
     name lhand
     direction 1 -4.48815e-011 -5.98193e-027   
     length 0.771611   
     axis 3.82337e-015 90 90   XYZ
    dof rx rz
    limits (-90.0 90.0)
           (-45.0 45.0)
  end
  begin
     id 22 
     name lfingers
     direction 1 -4.49034e-011 -1.1993e-026   
     length 0.622093   
     axis 7.64668e-015 90 90   XYZ
    dof rx
    limits (0.0 90.0)
  end
  begin
     id 23
     name lthumb
     direction 0.707107 -6.34867e-011 0.707107   
     length 0.893204   
     axis -90 45 -1.62303e-014   XYZ
    dof rx rz
    limits (-45.0 45.0)
           (-45.0 45.0)
  end
  begin
     id 24 
     name rclavicle
     direction -0.93442 0.355634 -0.0195692   
     length 3.62463  
     axis 0 0 0   XYZ 
    dof ry rz
    limits (-10.0 20.0)
           (-20.0 0.0)
  end
  begin
     id 25 
     name rhumerus
     direction -1 -4.48957e-011 -1.19147e-027  
     length 5.14182   
     axis 180 30 90   XYZ
    dof rx ry rz
    limits (-90.0 60.0)
           (-90.0 90.0)
           (-90.0 90.0)
  end
  begin
     id 26 
     name rradius
     direction -1 -4.48952e-011 -3.81062e-027   
     length 3.35565   
     axis 180 30 90   XYZ
    dof rx
    limits (-10.0 170.0)
  end
  begin
     id 27 
     name rwrist
     direction -1 -4.48973e-011 -2.99621e-027   
     length 1.67782   
     axis 1.95339e-015 -90 -90   XYZ
    dof ry
    limits (-180.0 0.0)
  end
  begin
     id 28
     name rhand
     direction -1 -4.48895e-011 -5.98727e-027   
     length 0.801042   
     axis 3.82337e-015 -90 -90   XYZ
    dof rx rz
    limits (-90.0 90.0)
           (-45.0 45.0)
  end
  begin
     id 29
     name rfingers
     direction -1 -4.49065e-011 -1.19972e-026   
     length 0.645821   
     axis 7.64668e-015 -90 -90   XYZ
    dof rx
    limits (0.0 90.0)
  end
  begin
     id 30
     name rthumb
     direction -0.707107 -6.34957e-011 0.707107   
     length 0.927273   
     axis -90 -45 1.62303e-014   XYZ
    dof rx rz
    limits (-45.0 45.0)
           (-45.0 45.0)
  end
:hierarchy
  begin
    root lhipjoint rhipjoint lowerback
    lhipjoint lfemur
    lfemur ltibia
    ltibia lfoot
    lfoot ltoes
    rhipjoint rfemur
    rfemur rtibia
    rtibia rfoot
    rfoot rtoes
    lowerback upperback
    upperback thorax
    thorax lowerneck lclavicle rclavicle
    lowerneck upperneck
    upperneck head
    lclavicle lhumerus
    lhumerus lradius
    lradius lwrist
    lwrist lhand lthumb
    lhand lfingers
    rclavicle rhumerus
    rhumerus rradius
    rradius rwrist
    rwrist rhand rthumb
    rhand rfingers
  end

#!OML:ASF E:\Style4\Style4.ASF
:FULLY-SPECIFIED
:DEGREES
717
root -0.744508 18.0465 -1.04281 5.96579 15.1726 2.68034
lowerback 12.3284 2.74972 0.439076
upperback 3.70095 3.66617 -1.0683
thorax -2.92261 1.83011 -1.89061
lowerneck -0.126726 -3.88949 -5.24979
upperneck 9.40431 -5.47153 5.53596
head 3.42823 -2.69601 2.59491
rclavicle 3.01159e-014 -1.82882e-014
rhumerus 90.1548 -25.9864 -47.8779
rradius 45.4471
rwrist -0.277384
rhand 41.9702 0.294136
rfingers 7.12502
rthumb 64.0069 -8.45407
lclavicle 3.01159e-014 -1.82882e-014
lhumerus 88.5042 27.3485 44.6374
lradius 60.4901
lwrist -3.53931
lhand 26.3273 40.1381
lfingers 7.12502
lthumb 50.3769 61.1607
rfemur -16.0271 -8.21558 19.5128
rtibia 28.4307
rfoot -17.5147 -24.7106
rtoes -5.04552
lfemur -19.1753 -6.55458 -17.9677
ltibia 24.0905
lfoot -8.87478 3.53133
ltoes -18.3921
718
root -0.761744 18.0222 -1.09993 5.97766 15.1241 2.68823
lowerback 12.6756 2.73104 0.460469
upperback 4.08504 3.64413 -1.14397
thorax -2.70435 1.82478 -1.98392
lowerneck -0.20608 -3.83601 -5.30324
upperneck 8.67069 -5.39075 5.76114
head 3.19568 -2.65406 2.68165
rclavicle -8.36883e-014 -4.37326e-015
rhumerus 90.2644 -25.6386 -48.0753
rradius 44.8869
rwrist -0.0696494
rhand 42.0297 0.0109013
rfingers 7.12502
rthumb 64.0549 -8.66491
lclavicle -8.36883e-014 -4.37326e-015
lhumerus 88.4592 27.1454 44.4435
lradius 60.141
lwrist -3.67431
lhand 26.351 40.0298
lfingers 7.12502
lthumb 50.3985 61.0408
rfemur -16.7991 -8.25549 19.5432
rtibia 29.3977
rfoot -17.7747 -24.5895
rtoes -4.98617
lfemur -19.6234 -6.55399 -17.9488
ltibia 24.523
lfoot -9.08595 3.63529
ltoes -18.9229
719
root -0.778575 17.9963 -1.15726 6.01294 15.0845 2.76194
lowerback 12.9866 2.72592 0.424188
upperback 4.50768 3.63392 -1.22295
thorax -2.4282 1.82651 -2.04671
lowerneck -0.282086 -3.80979 -5.37325
upperneck 7.82601 -5.33734 5.95047
head 2.92774 -2.62833 2.75785
rclavicle 5.70512e-014 -7.55382e-015
rhumerus 90.3812 -25.4329 -48.1691
rradius 44.3313
rwrist -0.288938
rhand 42.291 -0.432522
rfingers 7.12502
rthumb 64.2649 -8.78755
lclavicle 5.70512e-014 -7.55382e-015
lhumerus 88.4906 27.0169 44.2408
lradius 59.7636
lwrist -3.8052
lhand 26.5414 39.9771
lfingers 7.12502
lthumb 50.5724 60.8941
rfemur -17.6196 -8.44617 19.5063
rtibia 30.4256
rfoot -17.9332 -24.381
rtoes -5.23657
lfemur -20.1572 -6.49797 -18.0061
ltibia 25.0701
lfoot -9.21914 3.63403
ltoes -19.6312
720
root -0.79462 17.968 -1.21304 6.06762 15.0479 2.85486
lowerback 13.2085 2.7088 0.33039
upperback 4.96039 3.60338 -1.26397
thorax -2.07848 1.8185 -2.02888
lowerneck -0.256831 -3.80149 -5.394
upperneck 6.85917 -5.297 5.99275
head 2.59576 -2.61382 2.77555
rclavicle 1.03169e-013 -3.61788e-014
rhumerus 90.5483 -25.141 -48.2492
rradius 43.7843
rwrist -0.434368
rhand 42.5372 -0.938388
rfingers 7.12502
rthumb 64.4621 -8.98615
lclavicle 1.03169e-013 -3.61788e-014
lhumerus 88.4019 26.9946 43.9711
lradius 59.4335
lwrist -3.88388
lhand 26.6468 39.8123
lfingers 7.12502
lthumb 50.6687 60.6767
rfemur -18.4938 -8.76138 19.4563
rtibia 31.5266
rfoot -18.0456 -24.1074
rtoes -5.54585
lfemur -20.7299 -6.39858 -18.0881
ltibia 25.6761
lfoot -9.37618 3.57351
ltoes -19.9433
721
root -0.810422 17.936 -1.26816 6.1258 15.0206 2.84269
lowerback 13.359 2.66259 0.335193
upperback 5.41166 3.54837 -1.28307
thorax -1.68743 1.79915 -2.03621
lowerneck -0.108973 -3.784 -5.47685
upperneck 5.78122 -5.24635 6.07981
head 2.21231 -2.59681 2.82332
rclavicle -3.75703e-014 -1.35174e-014
rhumerus 90.7603 -24.7378 -48.3664
rradius 43.0706
rwrist -0.283099
rhand 42.6095 -1.1069
rfingers 7.12502
rthumb 64.5198 -9.06341
lclavicle -3.75703e-014 -1.35174e-014
lhumerus 88.0357 27.0231 43.4443
lradius 59.223
lwrist -4.16175
lhand 26.5827 39.9325
lfingers 7.12502
lthumb 50.6101 60.8289
rfemur -19.4155 -9.05803 19.5279
rtibia 32.6743
rfoot -18.294 -23.8113
rtoes -5.68953
lfemur -21.3796 -6.29344 -18.0544
ltibia 26.3556
lfoot -9.58529 3.51203
ltoes -20.1747
722
root -0.826711 17.9024 -1.3229 6.1538 14.9679 2.90709
lowerback 13.592 2.65973 0.25726
upperback 5.82313 3.53906 -1.32272
thorax -1.3835 1.80058 -2.0312
lowerneck 0.0210385 -3.78234 -5.59906
upperneck 4.88257 -5.22412 6.23102
head 1.90149 -2.592 2.90077
rclavicle -1.80894e-014 6.75868e-015
rhumerus 90.8301 -24.3174 -48.3597
rradius 42.1093
rwrist 0.157939
rhand 42.5007 -0.451157
rfingers 7.12502
rthumb 64.4329 -8.54476
lclavicle -1.80894e-014 6.75868e-015
lhumerus 87.6412 26.8679 42.789
lradius 58.8634
lwrist -4.79065
lhand 26.3106 40.0161
lfingers 7.12502
lthumb 50.3616 61.0468
rfemur -20.2951 -9.28308 19.5106
rtibia 33.8422
rfoot -18.3374 -23.6272
rtoes -6.46156
lfemur -22.0252 -6.23652 -18.0979
ltibia 27.1107
lfoot -9.85919 3.49326
ltoes -19.8455
723
root -0.844129 17.8657 -1.37952 6.14708 14.8975 2.98197
lowerback 13.9522 2.67983 0.197744
upperback 6.14615 3.55944 -1.38048
thorax -1.23577 1.81503 -2.06969
lowerneck 0.306557 -3.76268 -5.73586
upperneck 4.10193 -5.1886 6.41847
head 1.60492 -2.58189 2.99756
rclavicle 5.02925e-014 -8.74653e-015
rhumerus 90.6029 -23.9 -48.0502
rradius 41.2052
rwrist 0.409832
rhand 42.4914 0.210012
rfingers 7.12502
rthumb 64.4254 -7.8953
lclavicle 5.02925e-014 -8.74653e-015
lhumerus 87.2282 26.5426 42.0166
lradius 58.3681
lwrist -5.66266
lhand 26.1845 39.7637
lfingers 7.12502
lthumb 50.2464 60.856
rfemur -21.1579 -9.48713 19.4876
rtibia 35.0209
rfoot -18.1023 -23.5845
rtoes -8.24548
lfemur -22.6873 -6.14732 -18.1541
ltibia 27.9486
lfoot -10.0928 3.45956
ltoes -19.7069
724
root -0.860384 17.8291 -1.43233 6.09835 14.8367 3.01572
lowerback 14.3015 2.69352 0.195882
upperback 6.45406 3.57879 -1.42711
thorax -1.09416 1.82973 -2.12882
lowerneck 0.709692 -3.73839 -5.81295
upperneck 3.31437 -5.14967 6.56643
head 1.28348 -2.57174 3.07359
rclavicle -6.26172e-015 9.93923e-015
rhumerus 90.4465 -23.3392 -47.8804
rradius 40.259
rwrist 0.716874
rhand 42.5707 0.62695
rfingers 7.12502
rthumb 64.4889 -7.37858
lclavicle -6.26172e-015 9.93923e-015
lhumerus 86.7927 26.0971 41.2786
lradius 57.8213
lwrist -6.7291
lhand 26.0468 39.2035
lfingers 7.12502
lthumb 50.1204 60.3628
rfemur -21.9695 -9.71262 19.502
rtibia 36.204
rfoot -18.1283 -23.47
rtoes -9.41513
lfemur -23.3174 -6.00116 -18.1774
ltibia 28.8567
lfoot -10.3385 3.31663
ltoes -19.7575
725
root -0.873856 17.7913 -1.48274 6.08724 14.8213 3.11562
lowerback 14.585 2.70359 0.14381
upperback 6.77327 3.58816 -1.47144
thorax -0.90817 1.83915 -2.15204
lowerneck 0.918049 -3.75821 -5.73405
upperneck 2.69175 -5.16164 6.53674
head 1.04359 -2.58315 3.05581
rclavicle 2.42517e-014 -2.46493e-014
rhumerus 90.4811 -22.7003 -47.9551
rradius 39.1247
rwrist 1.20102
rhand 42.5226 0.800298
rfingers 7.12502
rthumb 64.4504 -7.26585
lclavicle 2.42517e-014 -2.46493e-014
lhumerus 86.4233 25.5733 40.5871
lradius 57.3081
lwrist -7.47221
lhand 25.8091 39.131
lfingers 7.12502
lthumb 49.903 60.4046
rfemur -22.8011 -9.99819 19.4473
rtibia 37.3829
rfoot -18.3835 -23.2556
rtoes -10.0415
lfemur -24.0018 -5.8734 -18.2798
ltibia 29.8128
lfoot -10.5627 3.15597
ltoes -19.8146
726
root -0.887829 17.7511 -1.53563 6.10025 14.8097 3.14588
lowerback 14.8624 2.70104 0.13477
upperback 7.03873 3.5859 -1.49482
thorax -0.77386 1.84229 -2.17738
lowerneck 1.07662 -3.74036 -5.66872
upperneck 2.13596 -5.12339 6.49412
head 0.831743 -2.5687 3.03673
rclavicle 5.96354e-016 -2.74323e-014
rhumerus 90.4634 -21.9816 -48.0887
rradius 37.9907
rwrist 1.71292
rhand 42.392 0.605778
rfingers 7.12502
rthumb 64.3459 -7.62383
lclavicle 5.96354e-016 -2.74323e-014
lhumerus 85.975 25.0786 39.7474
lradius 57.0072
lwrist -7.61108
lhand 25.436 39.5389
lfingers 7.12502
lthumb 49.5612 60.989
rfemur -23.676 -10.2958 19.4869
rtibia 38.5258
rfoot -18.7888 -22.9402
rtoes -9.55446
lfemur -24.7769 -5.70674 -18.3106
ltibia 30.8093
lfoot -10.7714 3.00938
ltoes -20.166
727
root -0.90401 17.7108 -1.58681 6.10599 14.8192 3.18582
lowerback 15.125 2.70873 0.141611
upperback 7.27581 3.59917 -1.50442
thorax -0.660292 1.85296 -2.19974
lowerneck 1.27528 -3.70516 -5.78861
upperneck 1.66819 -5.06962 6.51325
head 0.648329 -2.54765 3.07464
rclavicle 9.54166e-015 5.56597e-015
rhumerus 90.3107 -21.2228 -48.1531
rradius 36.8538
rwrist 2.42991
rhand 42.6239 0.743796
rfingers 7.12502
rthumb 64.5313 -7.19451
lclavicle 9.54166e-015 5.56597e-015
lhumerus 85.4467 24.5567 38.8517
lradius 56.69
lwrist -8.02469
lhand 25.1579 39.6099
lfingers 7.12502
lthumb 49.3061 61.1895
rfemur -24.4729 -10.4899 19.518
rtibia 39.6032
rfoot -19.4471 -22.5976
rtoes -7.50515
lfemur -25.5578 -5.56556 -18.3328
ltibia 31.8314
lfoot -11.0136 2.75747
ltoes -19.7498
728
root -0.919644 17.669 -1.63357 6.10136 14.8627 3.28735
lowerback 15.2649 2.69449 0.111032
upperback 7.62022 3.58282 -1.52186
thorax -0.370774 1.85084 -2.19441
lowerneck 1.36669 -3.70614 -5.97056
upperneck 1.20389 -5.06169 6.57759
head 0.491215 -2.54768 3.13747
rclavicle 7.95139e-016 -7.95139e-015
rhumerus 90.256 -20.4658 -48.3093
rradius 35.843
rwrist 3.20473
rhand 42.9761 0.914898
rfingers 7.12502
rthumb 64.8116 -6.57261
lclavicle 7.95139e-016 -7.95139e-015
lhumerus 84.9371 24.1598 38.0165
lradius 56.3957
lwrist -8.78714
lhand 25.1324 39.4691
lfingers 7.12502
lthumb 49.2827 61.0605
rfemur -25.1923 -10.6794 19.4664
rtibia 40.6015
rfoot -19.5573 -22.5924
rtoes -8.08601
lfemur -26.3082 -5.40246 -18.4469
ltibia 32.8701
lfoot -11.2373 2.5682
ltoes -20.0405
729
root -0.931822 17.6232 -1.67835 6.0666 14.9523 3.38158
lowerback 15.4233 2.64612 0.070318
upperback 7.98764 3.52159 -1.52647
thorax -0.0689081 1.82612 -2.16373
lowerneck 1.2621 -3.70065 -5.87684
upperneck 0.813834 -5.03337 6.36492
head 0.37432 -2.53295 3.04942
rclavicle -1.47101e-014 3.69739e-014
rhumerus 90.268 -19.6863 -48.4849
rradius 34.9326
rwrist 3.82458
rhand 42.8973 0.883013
rfingers 7.12502
rthumb 64.749 -6.70626
lclavicle -1.47101e-014 3.69739e-014
lhumerus 84.4858 23.7748 37.3195
lradius 56.0912
lwrist -9.5871
lhand 25.0371 39.3952
lfingers 7.12502
lthumb 49.1953 61.0304
rfemur -25.8438 -10.8629 19.3847
rtibia 41.5271
rfoot -19.5232 -22.7703
rtoes -9.87276
lfemur -27.0299 -5.31058 -18.5595
ltibia 33.8933
lfoot -11.475 2.41604
ltoes -20.2166
730
root -0.945556 17.5755 -1.72068 6.02625 15.044 3.48433
lowerback 15.6637 2.62799 -0.0130504
upperback 8.24838 3.49132 -1.50749
thorax 0.0747155 1.81249 -2.09714
lowerneck 1.20411 -3.68149 -5.59998
upperneck 0.595461 -4.99179 5.89091
head 0.290663 -2.51095 2.83882
rclavicle 1.82882e-014 -5.96354e-015
rhumerus 90.1097 -18.8482 -48.5961
rradius 34.0684
rwrist 4.46725
rhand 42.8747 0.846969
rfingers 7.12502
rthumb 64.7311 -6.77139
lclavicle 1.82882e-014 -5.96354e-015
lhumerus 83.9793 23.176 36.7063
lradius 55.7958
lwrist -10.1456
lhand 24.973 39.356
lfingers 7.12502
lthumb 49.1364 61.0206
rfemur -26.4506 -10.9833 19.2878
rtibia 42.4335
rfoot -20.0518 -22.6998
rtoes -9.18778
lfemur -27.718 -5.18519 -18.6844
ltibia 34.888
lfoot -11.7311 2.26924
ltoes -20.5337
731
root -0.961064 17.5289 -1.76156 5.95251 15.1248 3.52586
lowerback 15.9499 2.67258 -0.0567073
upperback 8.36754 3.54474 -1.43378
thorax 0.0462105 1.83763 -2.01521
lowerneck 1.72555 -3.70527 -5.37633
upperneck 0.22374 -5.03045 5.47075
head 0.0672246 -2.53627 2.6732
rclavicle 3.08116e-014 1.03368e-014
rhumerus 89.6569 -17.8797 -48.745
rradius 33.2903
rwrist 5.28445
rhand 43.2586 0.665117
rfingers 7.12502
rthumb 65.0351 -6.45326
lclavicle 3.08116e-014 1.03368e-014
lhumerus 83.4883 22.2062 36.3362
lradius 55.4798
lwrist -10.4506
lhand 25.0387 39.2209
lfingers 7.12502
lthumb 49.1967 60.8555
rfemur -27.0113 -11.1036 19.2956
rtibia 43.3479
rfoot -20.4807 -22.5985
rtoes -8.59623
lfemur -28.3398 -5.04927 -18.7206
ltibia 35.8313
lfoot -11.9784 1.95922
ltoes -19.8033
